<svg xmlns="http://www.w3.org/2000/svg" xmlns:xlink="http://www.w3.org/1999/xlink" viewBox="0 0 958.8 177.252" style="max-width:206px;width:100%"><defs><clipPath id="clip-path"><rect width="958.8" height="177.252" fill="#fe5000"></rect></clipPath></defs><g id="Group_2123-2" data-name="Group 2123" clip-path="url(#clip-path)"><path d="M201.384,90.284q2.818-14.9-1.509-26.374a37.22,37.22,0,0,0-14.4-18.218q-10.068-6.743-24.56-6.745a55.407,55.407,0,0,0-24.762,5.738,56.336,56.336,0,0,0-19.729,16,56.949,56.949,0,0,0-10.871,24.56q-3.021,15.505,1.811,27.983a39.627,39.627,0,0,0,16.408,19.729q11.574,7.249,28.486,7.248a75.338,75.338,0,0,0,22.749-3.423,59.877,59.877,0,0,0,18.32-9.059l-11.274-21.139a37.967,37.967,0,0,1-24.158,8.053q-7.653,0-12.482-2.717a13.725,13.725,0,0,1-6.542-7.851,20.377,20.377,0,0,1-.956-5.336h61.854ZM150.451,66.629a18.2,18.2,0,0,1,8.858-2.315,12.186,12.186,0,0,1,7.851,2.415,11.829,11.829,0,0,1,4.027,6.946,24.636,24.636,0,0,1,.472,6.341H140.567a32.15,32.15,0,0,1,2.838-6.341,18.7,18.7,0,0,1,7.046-7.046" fill="#fe5000"></path><path d="M361.752,50.422Q354.2,38.947,337.7,38.947A39.658,39.658,0,0,0,313.637,46.7a40.794,40.794,0,0,0-8.245,8.075.2.2,0,0,0-.009-.022,26.841,26.841,0,0,0-9.663-11.375,27.543,27.543,0,0,0-15.8-4.429,36.88,36.88,0,0,0-19.83,5.838,37.294,37.294,0,0,0-10.5,9.749l.135-12.567h-31L200.4,136.988h34.827l9.463-47.913a34.922,34.922,0,0,1,3.724-10.469,19.2,19.2,0,0,1,6.039-6.744A13.508,13.508,0,0,1,262,69.547q5.633,0,7.75,4.027t.3,12.683l-9.865,50.731h35.029l9.663-50.53A31,31,0,0,1,308.3,77.1a14.56,14.56,0,0,1,13.286-7.55q5.436,0,7.651,3.825t.4,12.885l-9.662,50.731h34.827l10.468-54.154Q369.3,61.9,361.752,50.422" fill="#fe5000"></path><path d="M466.094,46.195q-7.956-7.248-19.628-7.248a36.653,36.653,0,0,0-19.729,5.637,34.673,34.673,0,0,0-10.193,9.827l.128-12.444h-31L359.5,177.252h35.029l7.8-40.438a49.136,49.136,0,0,0,18.173,3.4,58.28,58.28,0,0,0,25.87-5.738A54.871,54.871,0,0,0,466.3,117.963,60.558,60.558,0,0,0,477.267,92.1a60.511,60.511,0,0,0-.2-26.474q-3.02-12.177-10.972-19.426m-23.856,44.49a26.044,26.044,0,0,1-4.228,10.872,20.889,20.889,0,0,1-7.851,6.945,23.549,23.549,0,0,1-10.669,2.315,31.833,31.833,0,0,1-11.707-2.314l4.057-21.039A29.656,29.656,0,0,1,415.766,77a19.321,19.321,0,0,1,6.543-6.442,16.2,16.2,0,0,1,8.254-2.215,11.285,11.285,0,0,1,7.85,2.718,14.187,14.187,0,0,1,4.127,7.751,28.775,28.775,0,0,1-.3,11.877" fill="#fe5000"></path><path d="M543.91,108.7a19.987,19.987,0,0,1-9.06,2.114,16.343,16.343,0,0,1-9.864-2.919,14.754,14.754,0,0,1-5.536-8.153,26.7,26.7,0,0,1-.3-12.079A27.232,27.232,0,0,1,523.375,77.3a21.356,21.356,0,0,1,7.55-6.743,20.824,20.824,0,0,1,9.965-2.416q10.267,0,16.1,9.26l23.353-16.911a44.592,44.592,0,0,0-16.106-15.9q-9.864-5.633-23.151-5.637a59.759,59.759,0,0,0-25.97,5.737,55.913,55.913,0,0,0-20.232,16.105,56.92,56.92,0,0,0-10.972,24.26q-3.02,15.5,2.215,27.983a41.7,41.7,0,0,0,16.91,19.728q11.675,7.248,27.178,7.247A54.977,54.977,0,0,0,570.282,123.5l-17.515-21.339a37.294,37.294,0,0,1-8.857,6.542" fill="#fe5000"></path><path d="M659.849,46.4q-11.679-7.446-27.983-7.449A58.242,58.242,0,0,0,606.4,44.584a55.109,55.109,0,0,0-19.729,15.7A53.985,53.985,0,0,0,576.1,84.042q-3.02,15.7,2.416,28.486A42.85,42.85,0,0,0,595.83,132.66q11.875,7.347,27.782,7.348a58.061,58.061,0,0,0,25.567-5.637,55.328,55.328,0,0,0,19.628-15.7,53.941,53.941,0,0,0,10.569-23.554q3.219-16.1-2.315-28.687A44.623,44.623,0,0,0,659.849,46.4m-14.9,44.692a25.652,25.652,0,0,1-4.026,10.066,22.586,22.586,0,0,1-7.349,6.945,18.29,18.29,0,0,1-9.361,2.517,13.9,13.9,0,0,1-8.756-2.717,14.319,14.319,0,0,1-4.933-7.853,25.638,25.638,0,0,1,0-11.978A29.23,29.23,0,0,1,614.652,77.8a21.682,21.682,0,0,1,7.248-6.945,17.949,17.949,0,0,1,9.16-2.517,14,14,0,0,1,8.858,2.819,14.6,14.6,0,0,1,5.033,7.851,26.1,26.1,0,0,1,0,12.079" fill="#fe5000"></path><path d="M753.681,41.967,725.006,99.7,716.84,41.967H682.214l21.339,95.021h30.4l55.764-95.021Z" fill="#fe5000"></path><path d="M871.208,90.284q2.817-14.9-1.51-26.374A37.218,37.218,0,0,0,855.3,45.692q-10.068-6.743-24.56-6.745a55.407,55.407,0,0,0-24.762,5.738,56.327,56.327,0,0,0-19.729,16,56.937,56.937,0,0,0-10.871,24.56q-3.021,15.505,1.811,27.983A39.63,39.63,0,0,0,793.6,132.962q11.576,7.249,28.487,7.248a75.338,75.338,0,0,0,22.749-3.423,59.889,59.889,0,0,0,18.32-9.059l-11.274-21.139a37.972,37.972,0,0,1-24.158,8.053q-7.653,0-12.482-2.717a13.725,13.725,0,0,1-6.542-7.851,20.377,20.377,0,0,1-.956-5.336H869.6ZM820.275,66.629a18.2,18.2,0,0,1,8.858-2.315,12.186,12.186,0,0,1,7.851,2.415,11.829,11.829,0,0,1,4.027,6.946,24.636,24.636,0,0,1,.472,6.341H810.391a32.151,32.151,0,0,1,2.838-6.341,18.692,18.692,0,0,1,7.046-7.046" fill="#fe5000"></path><path d="M947.526,40.356a32.516,32.516,0,0,0-13.79,3.02,36.941,36.941,0,0,0-11.676,8.556,38.468,38.468,0,0,0-2.808,3.418l.291-13.383h-31l-18.32,95.021h34.828L913.3,95.114a42.586,42.586,0,0,1,4.932-13.789,25.021,25.021,0,0,1,8.154-8.557,20.448,20.448,0,0,1,11.072-3.019,26.832,26.832,0,0,1,5.637.6,36.461,36.461,0,0,1,5.435,1.61L958.8,42.571a29.636,29.636,0,0,0-11.274-2.215" fill="#fe5000"></path><path d="M86.636,112.215a15.7,15.7,0,0,1-5.845,1.2A8.365,8.365,0,0,1,73.45,109.8c-1.689-2.418-2.184-5.768-1.514-10.06l4.99-24.876-22-6.738h45.193l5.029-26.167H83.335L91.613,0H33.272L55.267,6.739,49.68,35.217l22,6.74L0,41.954l32.953,10.1L29.864,68.124h13.38L37.506,97.515q-2.4,12.5.913,22.147a27.882,27.882,0,0,0,11.777,15q8.448,5.331,20.73,5.331a54.55,54.55,0,0,0,16.613-2.408,42.293,42.293,0,0,0,13.787-7.457L91.87,108.992a17.217,17.217,0,0,1-5.234,3.223" fill="#fe5000"></path></g></svg>